<svg id="Capa_1" data-name="Capa 1" xmlns="http://www.w3.org/2000/svg" viewBox="0 0 100.15 100.37"><defs><style>.cls-1,.cls-2,.cls-3,.cls-4,.cls-5,.cls-6,.cls-7,.cls-8{fill-rule:evenodd;}.cls-2{fill:#e5e4e4;}.cls-2,.cls-3,.cls-4,.cls-7,.cls-8{stroke:#000;stroke-linecap:square;stroke-miterlimit:10;stroke-width:0;}.cls-3,.cls-5{fill:#7f7f80;}.cls-4,.cls-6{fill:#b3b2b2;}.cls-8{fill:#56b038;}</style></defs><polygon class="cls-1" points="100 50.19 98.2 37.28 93.2 25.17 85.41 14.86 75.11 6.86 63.02 1.95 50.02 0.15 37.03 1.95 25.14 6.86 14.84 14.86 6.75 25.17 1.75 37.28 0.15 50.19 1.75 63.1 6.75 75.2 14.84 85.61 25.14 93.52 37.03 98.62 50.02 100.22 63.02 98.62 75.11 93.52 85.41 85.61 93.2 75.2 98.2 63.1 100 50.19 100 50.19"/><polygon points="98.08 37.33 98.08 37.3 99.87 50.21 100.12 50.16 98.33 37.25 98.33 37.23 98.33 37.25 98.33 37.23 98.08 37.33"/><polygon points="93.1 25.24 93.08 25.22 98.08 37.33 98.33 37.23 93.33 25.12 93.3 25.09 93.33 25.12 93.33 25.09 93.3 25.09 93.1 25.24"/><polygon points="85.33 14.96 85.31 14.94 93.1 25.24 93.3 25.09 85.51 14.79 85.48 14.76 85.51 14.79 85.51 14.76 85.48 14.76 85.33 14.96"/><polygon points="75.06 6.98 75.04 6.96 85.33 14.96 85.48 14.76 75.19 6.75 75.16 6.73 75.19 6.75 75.19 6.73 75.16 6.73 75.06 6.98"/><polygon points="62.99 2.08 62.97 2.08 75.06 6.98 75.16 6.73 63.07 1.83 63.04 1.83 63.07 1.83 63.04 1.83 62.99 2.08"/><polygon points="50.05 0.28 50 0.28 62.99 2.08 63.04 1.83 50.05 0.03 50 0.03 50.05 0.03 50.02 0 50 0.03 50.05 0.28"/><polygon points="37.08 2.08 37.06 2.08 50.05 0.28 50 0.03 37.01 1.83 36.98 1.83 37.01 1.83 36.98 1.83 37.08 2.08"/><polygon points="25.21 6.96 25.19 6.98 37.08 2.08 36.98 1.83 25.09 6.73 25.06 6.75 25.09 6.73 25.06 6.73 25.06 6.75 25.21 6.96"/><polygon points="14.94 14.94 14.92 14.96 25.21 6.96 25.06 6.75 14.77 14.76 14.74 14.79 14.77 14.76 14.74 14.76 14.74 14.79 14.94 14.94"/><polygon points="6.87 25.22 6.85 25.24 14.94 14.94 14.74 14.79 6.65 25.09 6.62 25.12 6.65 25.09 6.62 25.09 6.62 25.12 6.87 25.22"/><polygon points="1.87 37.3 1.87 37.33 6.87 25.22 6.62 25.12 1.62 37.23 1.62 37.25 1.62 37.23 1.62 37.25 1.87 37.3"/><polygon points="0.28 50.16 0.28 50.21 1.87 37.3 1.62 37.25 0.03 50.16 0.03 50.21 0.03 50.16 0 50.19 0.03 50.21 0.28 50.16"/><polygon points="1.87 63.05 1.87 63.07 0.28 50.16 0.03 50.21 1.62 63.12 1.62 63.15 1.62 63.12 1.62 63.15 1.87 63.05"/><polygon points="6.85 75.13 6.87 75.16 1.87 63.05 1.62 63.15 6.62 75.25 6.65 75.28 6.62 75.25 6.62 75.28 6.65 75.28 6.85 75.13"/><polygon points="14.92 85.51 14.94 85.54 6.85 75.13 6.65 75.28 14.74 85.69 14.77 85.71 14.74 85.69 14.74 85.71 14.77 85.71 14.92 85.51"/><polygon points="25.19 93.39 25.21 93.42 14.92 85.51 14.77 85.71 25.06 93.62 25.09 93.64 25.06 93.62 25.06 93.64 25.09 93.64 25.19 93.39"/><polygon points="37.06 98.5 37.08 98.5 25.19 93.39 25.09 93.64 36.98 98.75 37.01 98.75 36.98 98.75 37.01 98.75 37.06 98.5"/><polygon points="50 100.1 50.05 100.1 37.06 98.5 37.01 98.75 50 100.35 50.05 100.35 50 100.35 50.02 100.37 50.05 100.35 50 100.1"/><polygon points="62.97 98.5 62.99 98.5 50 100.1 50.05 100.35 63.04 98.75 63.07 98.75 63.04 98.75 63.07 98.75 62.97 98.5"/><polygon points="75.04 93.42 75.06 93.39 62.97 98.5 63.07 98.75 75.16 93.64 75.19 93.62 75.16 93.64 75.19 93.64 75.19 93.62 75.04 93.42"/><polygon points="85.31 85.54 85.33 85.51 75.04 93.42 75.19 93.62 85.48 85.71 85.51 85.69 85.48 85.71 85.51 85.71 85.51 85.69 85.31 85.54"/><polygon points="93.08 75.16 93.1 75.13 85.31 85.54 85.51 85.69 93.3 75.28 93.33 75.25 93.3 75.28 93.33 75.28 93.33 75.25 93.08 75.16"/><polygon points="98.08 63.07 98.08 63.05 93.08 75.16 93.33 75.25 98.33 63.15 98.33 63.12 98.33 63.15 98.33 63.12 98.08 63.07"/><polygon points="99.87 50.21 99.87 50.16 98.08 63.07 98.33 63.12 100.12 50.21 100.12 50.16 100.12 50.21 100.15 50.19 100.12 50.16 99.87 50.21"/><polygon class="cls-2" points="30.73 6.66 6.45 30.87 5.75 33.27 5.75 67.2 6.45 69.5 30.73 93.92 33.13 94.62 66.92 94.62 69.31 93.92 93.6 69.5 94.4 67.2 94.4 33.27 93.6 30.87 69.31 6.66 66.92 5.75 33.13 5.75 30.73 6.66 30.73 6.66"/><polygon class="cls-3" points="91.7 50.19 90.7 40.88 87.7 32.07 82.71 24.17 76.01 17.56 68.11 12.56 59.22 9.46 50.02 8.36 40.73 9.46 31.83 12.56 24.04 17.56 17.44 24.17 12.44 32.07 9.24 40.88 8.25 50.19 9.24 59.59 12.44 68.3 17.44 76.31 24.04 82.91 31.83 87.91 40.73 91.12 50.02 92.12 59.22 91.12 68.11 87.91 76.01 82.91 82.71 76.31 87.7 68.3 90.7 59.59 91.7 50.19 91.7 50.19"/><polygon class="cls-4" points="56.12 2.95 56.12 11.66 64.32 13.96 71.91 18.06 78.41 23.67 83.51 30.47 87 38.38 88.7 46.78 88.61 55.39 86.41 63.7 82.61 71.4 77.11 78.01 70.41 83.31 62.72 87.01 54.32 88.81 45.83 88.81 37.43 87.01 29.54 83.31 22.84 78.01 17.44 71.4 13.64 63.7 11.54 55.39 11.34 46.78 13.04 38.38 16.54 30.47 21.74 23.67 28.14 18.06 35.83 13.96 44.03 11.66 44.03 2.95 56.12 2.95 56.12 2.95"/><polygon class="cls-5" points="83.31 50.19 82.21 41.58 78.91 33.58 73.61 26.67 66.72 21.37 58.62 17.96 50.02 16.76 41.33 17.96 33.33 21.37 26.54 26.67 21.24 33.58 17.94 41.58 16.74 50.19 17.94 58.79 21.24 66.8 26.54 73.8 33.33 79.11 41.33 82.41 50.02 83.61 58.62 82.41 66.72 79.11 73.61 73.8 78.91 66.8 82.21 58.79 83.31 50.19 83.31 50.19"/><polygon class="cls-6" points="81.81 50.19 80.81 42.08 77.51 34.27 72.61 27.67 66.02 22.67 58.22 19.46 50.02 18.26 41.73 19.46 34.13 22.67 27.54 27.67 22.44 34.27 19.34 42.08 18.24 50.19 19.34 58.39 22.44 66.2 27.54 72.8 34.13 77.91 41.73 80.91 50.02 82.11 58.22 80.91 66.02 77.91 72.61 72.8 77.51 66.2 80.81 58.39 81.81 50.19 81.81 50.19"/><polygon class="cls-7" points="78.91 50.19 77.91 42.68 75.01 35.88 70.41 29.77 64.42 25.17 57.52 22.37 50.02 21.37 42.63 22.37 35.63 25.17 29.73 29.77 25.04 35.88 22.24 42.68 21.24 50.19 22.24 57.69 25.04 64.7 29.73 70.6 35.63 75.2 42.63 78.11 50.02 79.11 57.52 78.11 64.42 75.2 70.41 70.6 75.01 64.7 77.91 57.69 78.91 50.19 78.91 50.19"/><polygon class="cls-8" points="75.91 50.19 75.01 43.48 72.41 37.28 68.22 31.87 62.92 27.87 56.72 25.17 50.02 24.37 43.23 25.17 37.03 27.87 31.73 31.87 27.64 37.28 25.04 43.48 24.24 50.19 25.04 56.89 27.64 63.1 31.73 68.5 37.03 72.7 43.23 75.2 50.02 76.11 56.72 75.2 62.92 72.7 68.22 68.5 72.41 63.1 75.01 56.89 75.91 50.19 75.91 50.19"/></svg>