<svg id="Capa_1" data-name="Capa 1" xmlns="http://www.w3.org/2000/svg" viewBox="0 0 100.15 100.37"><defs><style>.cls-1,.cls-2,.cls-3,.cls-4,.cls-5{fill-rule:evenodd;}.cls-2{fill:#e5e4e4;}.cls-3{fill:#7f7f80;}.cls-4{fill:#b3b2b2;}.cls-5{fill:#e52421;}</style></defs><polygon class="cls-1" points="100.01 50.19 98.31 37.17 93.21 25.26 85.31 14.85 75.02 6.85 63.02 1.94 50.02 0.14 37.13 1.94 25.03 6.85 14.84 14.85 6.84 25.26 1.84 37.17 0.14 50.19 1.84 63.2 6.84 75.11 14.84 85.62 25.03 93.53 37.13 98.53 50.02 100.23 63.02 98.53 75.02 93.53 85.31 85.62 93.21 75.11 98.31 63.2 100.01 50.19 100.01 50.19"/><polygon points="98.19 37.23 98.17 37.19 99.87 50.21 100.15 50.17 98.45 37.15 98.43 37.11 98.45 37.15 98.45 37.13 98.43 37.11 98.19 37.23"/><polygon points="93.11 25.34 93.09 25.32 98.19 37.23 98.43 37.11 93.33 25.2 93.31 25.18 93.33 25.2 93.31 25.18 93.11 25.34"/><polygon points="85.23 14.95 85.21 14.93 93.11 25.34 93.31 25.18 85.41 14.77 85.39 14.75 85.41 14.77 85.41 14.75 85.39 14.75 85.23 14.95"/><polygon points="74.96 6.97 74.94 6.95 85.23 14.95 85.39 14.75 75.1 6.75 75.08 6.73 75.1 6.75 75.08 6.73 74.96 6.97"/><polygon points="63 2.08 62.96 2.06 74.96 6.97 75.08 6.73 63.08 1.82 63.04 1.8 63.08 1.82 63.06 1.8 63.04 1.8 63 2.08"/><polygon points="50.04 0.28 50 0.28 63 2.08 63.04 1.8 50.04 0 50 0 50.04 0 50.02 0 50 0 50.04 0.28"/><polygon points="37.19 2.06 37.15 2.08 50.04 0.28 50 0 37.11 1.8 37.07 1.82 37.11 1.8 37.09 1.8 37.07 1.82 37.19 2.06"/><polygon points="25.11 6.95 25.09 6.97 37.19 2.06 37.07 1.82 24.97 6.73 24.95 6.75 24.97 6.73 24.95 6.75 25.11 6.95"/><polygon points="14.94 14.93 14.91 14.95 25.11 6.95 24.95 6.75 14.76 14.75 14.73 14.77 14.76 14.75 14.73 14.75 14.73 14.77 14.94 14.93"/><polygon points="6.96 25.32 6.94 25.34 14.94 14.93 14.73 14.77 6.74 25.18 6.72 25.2 6.74 25.18 6.72 25.2 6.96 25.32"/><polygon points="1.98 37.19 1.96 37.23 6.96 25.32 6.72 25.2 1.72 37.11 1.7 37.15 1.72 37.11 1.7 37.13 1.7 37.15 1.98 37.19"/><polygon points="0.28 50.17 0.28 50.21 1.98 37.19 1.7 37.15 0 50.17 0 50.21 0 50.17 0 50.19 0 50.21 0.28 50.17"/><polygon points="1.96 63.14 1.98 63.18 0.28 50.17 0 50.21 1.7 63.22 1.72 63.26 1.7 63.22 1.7 63.24 1.72 63.26 1.96 63.14"/><polygon points="6.94 75.03 6.96 75.05 1.96 63.14 1.72 63.26 6.72 75.17 6.74 75.19 6.72 75.17 6.74 75.19 6.94 75.03"/><polygon points="14.91 85.52 14.94 85.54 6.94 75.03 6.74 75.19 14.73 85.7 14.76 85.72 14.73 85.7 14.73 85.72 14.76 85.72 14.91 85.52"/><polygon points="25.09 93.41 25.11 93.43 14.91 85.52 14.76 85.72 24.95 93.63 24.97 93.65 24.95 93.63 24.97 93.65 25.09 93.41"/><polygon points="37.15 98.39 37.19 98.41 25.09 93.41 24.97 93.65 37.07 98.65 37.11 98.67 37.07 98.65 37.09 98.67 37.11 98.67 37.15 98.39"/><polygon points="50 100.09 50.04 100.09 37.15 98.39 37.11 98.67 50 100.37 50.04 100.37 50 100.37 50.02 100.37 50.04 100.37 50 100.09"/><polygon points="62.96 98.41 63 98.39 50 100.09 50.04 100.37 63.04 98.67 63.08 98.65 63.04 98.67 63.06 98.67 63.08 98.65 62.96 98.41"/><polygon points="74.94 93.43 74.96 93.41 62.96 98.41 63.08 98.65 75.08 93.65 75.1 93.63 75.08 93.65 75.1 93.63 74.94 93.43"/><polygon points="85.21 85.54 85.23 85.52 74.94 93.43 75.1 93.63 85.39 85.72 85.41 85.7 85.39 85.72 85.41 85.72 85.41 85.7 85.21 85.54"/><polygon points="93.09 75.05 93.11 75.03 85.21 85.54 85.41 85.7 93.31 75.19 93.33 75.17 93.31 75.19 93.33 75.17 93.09 75.05"/><polygon points="98.17 63.18 98.19 63.14 93.09 75.05 93.33 75.17 98.43 63.26 98.45 63.22 98.43 63.26 98.45 63.24 98.45 63.22 98.17 63.18"/><polygon points="99.87 50.21 99.87 50.17 98.17 63.18 98.45 63.22 100.15 50.21 100.15 50.17 100.15 50.21 100.15 50.19 100.15 50.17 99.87 50.21"/><polygon class="cls-2" points="30.73 6.55 6.44 30.87 5.64 33.27 5.64 67.1 6.44 69.5 30.73 93.93 33.13 94.73 66.92 94.73 69.32 93.93 93.71 69.5 94.31 67.1 94.31 33.27 93.71 30.87 69.32 6.55 66.92 5.75 33.13 5.75 30.73 6.55 30.73 6.55"/><polygon points="6.52 30.89 6.5 30.93 30.79 6.61 30.67 6.49 6.38 30.81 6.36 30.85 6.38 30.81 6.38 30.83 6.36 30.85 6.52 30.89"/><polygon points="5.72 33.27 5.72 33.29 6.52 30.89 6.36 30.85 5.56 33.25 5.56 33.27 5.56 33.25 5.56 33.27 5.72 33.27"/><polygon points="5.72 67.08 5.72 67.1 5.72 33.27 5.56 33.27 5.56 67.1 5.56 67.12 5.56 67.1 5.56 67.12 5.72 67.08"/><polygon points="6.5 69.44 6.52 69.48 5.72 67.08 5.56 67.12 6.36 69.52 6.38 69.56 6.36 69.52 6.38 69.54 6.38 69.56 6.5 69.44"/><polygon points="30.75 93.85 30.79 93.87 6.5 69.44 6.38 69.56 30.67 93.99 30.71 94.01 30.67 93.99 30.69 93.99 30.71 94.01 30.75 93.85"/><polygon points="33.13 94.65 33.15 94.65 30.75 93.85 30.71 94.01 33.11 94.81 33.13 94.81 33.11 94.81 33.13 94.81 33.13 94.65"/><polygon points="66.9 94.65 66.92 94.65 33.13 94.65 33.13 94.81 66.92 94.81 66.94 94.81 66.92 94.81 66.94 94.81 66.9 94.65"/><polygon points="69.26 93.87 69.3 93.85 66.9 94.65 66.94 94.81 69.34 94.01 69.38 93.99 69.34 94.01 69.36 93.99 69.38 93.99 69.26 93.87"/><polygon points="93.63 69.48 93.65 69.44 69.26 93.87 69.38 93.99 93.77 69.56 93.79 69.52 93.77 69.56 93.79 69.54 93.79 69.52 93.63 69.48"/><polygon points="94.23 67.1 94.23 67.08 93.63 69.48 93.79 69.52 94.39 67.12 94.39 67.1 94.39 67.12 94.39 67.1 94.23 67.1"/><polygon points="94.23 33.29 94.23 33.27 94.23 67.1 94.39 67.1 94.39 33.27 94.39 33.25 94.39 33.27 94.39 33.25 94.23 33.29"/><polygon points="93.65 30.93 93.63 30.89 94.23 33.29 94.39 33.25 93.79 30.85 93.77 30.81 93.79 30.85 93.79 30.83 93.77 30.81 93.65 30.93"/><polygon points="69.3 6.63 69.26 6.61 93.65 30.93 93.77 30.81 69.38 6.49 69.34 6.47 69.38 6.49 69.36 6.49 69.34 6.47 69.3 6.63"/><polygon points="66.92 5.83 66.9 5.83 69.3 6.63 69.34 6.47 66.94 5.67 66.92 5.67 66.94 5.67 66.92 5.67 66.92 5.83"/><polygon points="33.15 5.83 33.13 5.83 66.92 5.83 66.92 5.67 33.13 5.67 33.11 5.67 33.13 5.67 33.11 5.67 33.15 5.83"/><polygon points="30.79 6.61 30.75 6.63 33.15 5.83 33.11 5.67 30.71 6.47 30.67 6.49 30.71 6.47 30.69 6.49 30.67 6.49 30.79 6.61"/><polygon class="cls-3" points="91.71 50.19 90.71 40.88 87.61 31.97 82.71 24.06 76.11 17.56 68.22 12.55 59.22 9.45 50.02 8.35 40.73 9.45 31.93 12.55 23.93 17.56 17.43 24.06 12.44 31.97 9.24 40.88 8.24 50.19 9.24 59.59 12.44 68.4 17.43 76.31 23.93 82.92 31.93 87.92 40.73 91.12 50.02 92.13 59.22 91.12 68.22 87.92 76.11 82.92 82.71 76.31 87.61 68.4 90.71 59.59 91.71 50.19 91.71 50.19"/><polygon points="90.63 40.9 90.63 40.88 91.63 50.19 91.79 50.19 90.79 40.88 90.79 40.86 90.79 40.88 90.79 40.86 90.63 40.9"/><polygon points="87.55 32.01 87.53 31.99 90.63 40.9 90.79 40.86 87.69 31.95 87.67 31.93 87.69 31.95 87.69 31.93 87.67 31.93 87.55 32.01"/><polygon points="82.65 24.12 82.65 24.1 87.55 32.01 87.67 31.93 82.77 24.02 82.77 24 82.77 24.02 82.77 24 82.65 24.12"/><polygon points="76.08 17.62 76.06 17.62 82.65 24.12 82.77 24 76.17 17.5 76.16 17.5 76.17 17.5 76.16 17.5 76.08 17.62"/><polygon points="68.2 12.63 68.18 12.61 76.08 17.62 76.16 17.5 68.26 12.49 68.24 12.47 68.26 12.49 68.26 12.47 68.24 12.47 68.2 12.63"/><polygon points="59.22 9.53 59.2 9.53 68.2 12.63 68.24 12.47 59.24 9.37 59.22 9.37 59.24 9.37 59.22 9.37 59.22 9.53"/><polygon points="50.02 8.43 59.22 9.53 59.22 9.37 50.02 8.27 50.02 8.43"/><polygon points="40.75 9.53 40.73 9.53 50.02 8.43 50.02 8.27 40.73 9.37 40.71 9.37 40.73 9.37 40.71 9.37 40.75 9.53"/><polygon points="31.97 12.61 31.95 12.63 40.75 9.53 40.71 9.37 31.91 12.47 31.89 12.49 31.91 12.47 31.89 12.47 31.89 12.49 31.97 12.61"/><polygon points="23.99 17.62 23.97 17.62 31.97 12.61 31.89 12.49 23.89 17.5 23.87 17.5 23.89 17.5 23.87 17.5 23.99 17.62"/><polygon points="17.49 24.1 17.49 24.12 23.99 17.62 23.87 17.5 17.37 24 17.37 24.02 17.37 24 17.37 24.02 17.49 24.1"/><polygon points="12.52 31.99 12.5 32.01 17.49 24.1 17.37 24.02 12.38 31.93 12.36 31.95 12.38 31.93 12.36 31.93 12.36 31.95 12.52 31.99"/><polygon points="9.32 40.88 9.32 40.9 12.52 31.99 12.36 31.95 9.16 40.86 9.16 40.88 9.16 40.86 9.16 40.88 9.32 40.88"/><polygon points="8.32 50.19 9.32 40.88 9.16 40.88 8.16 50.19 8.32 50.19"/><polygon points="9.32 59.58 9.32 59.59 8.32 50.19 8.16 50.19 9.16 59.59 9.16 59.62 9.16 59.59 9.16 59.62 9.32 59.58"/><polygon points="12.5 68.36 12.52 68.38 9.32 59.58 9.16 59.62 12.36 68.42 12.38 68.44 12.36 68.42 12.36 68.44 12.38 68.44 12.5 68.36"/><polygon points="17.49 76.25 17.49 76.27 12.5 68.36 12.38 68.44 17.37 76.35 17.37 76.37 17.37 76.35 17.37 76.37 17.49 76.25"/><polygon points="23.97 82.86 23.99 82.86 17.49 76.25 17.37 76.37 23.87 82.98 23.89 82.98 23.87 82.98 23.89 82.98 23.97 82.86"/><polygon points="31.95 87.84 31.97 87.86 23.97 82.86 23.89 82.98 31.89 87.98 31.91 88 31.89 87.98 31.89 88 31.91 88 31.95 87.84"/><polygon points="40.73 91.04 40.75 91.04 31.95 87.84 31.91 88 40.71 91.2 40.73 91.2 40.71 91.2 40.73 91.2 40.73 91.04"/><polygon points="50.02 92.05 40.73 91.04 40.73 91.2 50.02 92.2 50.02 92.05"/><polygon points="59.2 91.04 59.22 91.04 50.02 92.05 50.02 92.2 59.22 91.2 59.24 91.2 59.22 91.2 59.24 91.2 59.2 91.04"/><polygon points="68.18 87.86 68.2 87.84 59.2 91.04 59.24 91.2 68.24 88 68.26 87.98 68.24 88 68.26 88 68.26 87.98 68.18 87.86"/><polygon points="76.06 82.86 76.08 82.86 68.18 87.86 68.26 87.98 76.16 82.98 76.17 82.98 76.16 82.98 76.17 82.98 76.06 82.86"/><polygon points="82.65 76.27 82.65 76.25 76.06 82.86 76.17 82.98 82.77 76.37 82.77 76.35 82.77 76.37 82.77 76.35 82.65 76.27"/><polygon points="87.53 68.38 87.55 68.36 82.65 76.27 82.77 76.35 87.67 68.44 87.69 68.42 87.67 68.44 87.69 68.44 87.69 68.42 87.53 68.38"/><polygon points="90.63 59.59 90.63 59.58 87.53 68.38 87.69 68.42 90.79 59.62 90.79 59.59 90.79 59.62 90.79 59.59 90.63 59.59"/><polygon points="91.63 50.19 90.63 59.59 90.79 59.59 91.79 50.19 91.63 50.19"/><polygon class="cls-4" points="56.12 2.94 56.12 11.75 64.32 14.05 71.92 18.06 78.42 23.66 83.51 30.57 87.01 38.27 88.71 46.78 88.51 55.39 86.41 63.7 82.61 71.31 77.22 78.01 70.42 83.32 62.62 87.02 54.32 88.82 45.73 88.82 37.33 87.02 29.63 83.32 22.83 78.01 17.43 71.31 13.64 63.7 11.54 55.39 11.34 46.78 13.04 38.27 16.54 30.57 21.73 23.66 28.13 18.06 35.73 14.05 44.03 11.75 44.03 2.94 56.12 2.94 56.12 2.94"/><polygon points="56.14 11.67 56.2 11.75 56.2 2.94 56.04 2.94 56.04 11.75 56.1 11.83 56.04 11.75 56.04 11.81 56.1 11.83 56.14 11.67"/><polygon points="64.36 13.97 64.34 13.97 56.14 11.67 56.1 11.83 64.3 14.13 64.28 14.13 64.36 13.97 64.34 13.97 64.36 13.97"/><polygon points="71.98 18 71.96 17.98 64.36 13.97 64.28 14.13 71.88 18.14 71.86 18.12 71.98 18 71.96 18 71.96 17.98 71.98 18"/><polygon points="78.47 23.62 78.47 23.6 71.98 18 71.86 18.12 78.36 23.72 78.36 23.7 78.47 23.62 78.47 23.6 78.47 23.62"/><polygon points="83.59 30.53 83.57 30.53 78.47 23.62 78.36 23.7 83.45 30.61 83.43 30.61 83.59 30.53 83.57 30.53 83.59 30.53"/><polygon points="87.09 38.26 87.09 38.23 83.59 30.53 83.43 30.61 86.93 38.31 86.93 38.3 87.09 38.26 87.09 38.23 87.09 38.26"/><polygon points="88.79 46.78 88.79 46.76 87.09 38.26 86.93 38.3 88.63 46.8 88.63 46.78 88.79 46.78 88.79 46.76 88.79 46.78"/><polygon points="88.59 55.41 88.59 55.39 88.79 46.78 88.63 46.78 88.43 55.39 88.43 55.37 88.59 55.41 88.59 55.39 88.59 55.41"/><polygon points="86.49 63.74 86.49 63.72 88.59 55.41 88.43 55.37 86.33 63.68 86.33 63.66 86.49 63.74 86.49 63.72 86.49 63.74"/><polygon points="82.67 71.35 82.69 71.35 86.49 63.74 86.33 63.66 82.53 71.27 82.55 71.27 82.67 71.37 82.67 71.35 82.69 71.35 82.67 71.35"/><polygon points="77.25 78.07 77.28 78.05 82.67 71.35 82.55 71.27 77.16 77.97 77.17 77.95 77.25 78.07 77.28 78.07 77.25 78.07"/><polygon points="70.46 83.4 70.46 83.38 77.25 78.07 77.17 77.95 70.38 83.26 70.38 83.24 70.46 83.4 70.46 83.38 70.46 83.4"/><polygon points="62.64 87.1 62.66 87.1 70.46 83.4 70.38 83.24 62.58 86.94 62.6 86.94 62.64 87.1 62.66 87.1 62.64 87.1"/><polygon points="54.32 88.9 54.34 88.9 62.64 87.1 62.6 86.94 54.3 88.74 54.32 88.74 54.32 88.9 54.34 88.9 54.32 88.9"/><polygon points="45.7 88.9 45.73 88.9 54.32 88.9 54.32 88.74 45.73 88.74 45.74 88.74 45.7 88.9 45.73 88.9 45.7 88.9"/><polygon points="37.29 87.1 37.31 87.1 45.7 88.9 45.74 88.74 37.35 86.94 37.37 86.94 37.29 87.1 37.31 87.1 37.29 87.1"/><polygon points="29.59 83.38 29.59 83.4 37.29 87.1 37.37 86.94 29.67 83.24 29.67 83.26 29.59 83.38 29.59 83.4 29.59 83.38"/><polygon points="22.77 78.05 22.79 78.07 29.59 83.38 29.67 83.26 22.87 77.95 22.89 77.97 22.77 78.07 22.79 78.07 22.77 78.05"/><polygon points="17.35 71.35 17.37 71.35 22.77 78.05 22.89 77.97 17.49 71.27 17.51 71.27 17.35 71.35 17.37 71.35 17.37 71.37 17.35 71.35"/><polygon points="13.56 63.72 13.56 63.74 17.35 71.35 17.51 71.27 13.72 63.66 13.72 63.68 13.56 63.72 13.56 63.74 13.56 63.72"/><polygon points="11.46 55.39 11.46 55.41 13.56 63.72 13.72 63.68 11.62 55.37 11.62 55.39 11.46 55.39 11.46 55.41 11.46 55.39"/><polygon points="11.26 46.76 11.26 46.78 11.46 55.39 11.62 55.39 11.42 46.78 11.42 46.8 11.26 46.76 11.26 46.78 11.26 46.76"/><polygon points="12.96 38.23 12.96 38.26 11.26 46.76 11.42 46.8 13.12 38.3 13.12 38.31 12.96 38.23 12.96 38.26 12.96 38.23"/><polygon points="16.48 30.53 16.45 30.53 12.96 38.23 13.12 38.31 16.61 30.61 16.59 30.61 16.48 30.53 16.45 30.53 16.48 30.53"/><polygon points="21.67 23.6 21.67 23.62 16.48 30.53 16.59 30.61 21.79 23.7 21.79 23.72 21.67 23.6 21.67 23.62 21.67 23.6"/><polygon points="28.09 17.98 28.07 18 21.67 23.6 21.79 23.72 28.19 18.12 28.17 18.14 28.09 17.98 28.09 18 28.07 18 28.09 17.98"/><polygon points="35.71 13.97 35.69 13.97 28.09 17.98 28.17 18.14 35.77 14.13 35.75 14.13 35.71 13.97 35.69 13.97 35.71 13.97"/><polygon points="43.95 11.75 44.01 11.67 35.71 13.97 35.75 14.13 44.05 11.83 44.11 11.75 44.05 11.83 44.11 11.81 44.11 11.75 43.95 11.75"/><polygon points="44.03 2.86 43.95 2.94 43.95 11.75 44.11 11.75 44.11 2.94 44.03 3.02 44.03 2.86 43.95 2.86 43.95 2.94 44.03 2.86"/><polygon points="56.2 2.94 56.12 2.86 44.03 2.86 44.03 3.02 56.12 3.02 56.04 2.94 56.2 2.94 56.2 2.86 56.12 2.86 56.2 2.94"/><polygon class="cls-3" points="83.31 50.19 82.21 41.58 78.91 33.57 73.62 26.56 66.72 21.26 58.62 17.96 50.02 16.86 41.43 17.96 33.43 21.26 26.53 26.56 21.13 33.57 17.83 41.58 16.73 50.19 17.83 58.89 21.13 66.9 26.53 73.81 33.43 79.11 41.43 82.52 50.02 83.62 58.62 82.52 66.72 79.11 73.62 73.81 78.91 66.9 82.21 58.89 83.31 50.19 83.31 50.19"/><polygon class="cls-4" points="81.81 50.19 80.81 42.08 77.52 34.27 72.62 27.66 65.92 22.66 58.22 19.46 50.02 18.36 41.73 19.46 34.13 22.66 27.53 27.66 22.43 34.27 19.33 42.08 18.33 50.19 19.33 58.39 22.43 66.1 27.53 72.81 34.13 77.91 41.73 81.02 50.02 82.02 58.22 81.02 65.92 77.91 72.62 72.81 77.52 66.1 80.81 58.39 81.81 50.19 81.81 50.19"/><polygon class="cls-1" points="78.91 50.19 77.92 42.78 74.92 35.77 70.42 29.77 64.42 25.26 57.42 22.26 50.02 21.26 42.53 22.26 35.53 25.26 29.73 29.77 25.03 35.77 22.13 42.78 21.23 50.19 22.13 57.59 25.03 64.6 29.73 70.61 35.53 75.31 42.53 78.11 50.02 79.11 57.42 78.11 64.42 75.31 70.42 70.61 74.92 64.6 77.92 57.59 78.91 50.19 78.91 50.19"/><polygon points="77.83 42.82 77.83 42.8 78.83 50.21 78.99 50.17 78 42.76 78 42.74 78 42.76 78 42.74 77.83 42.82"/><polygon points="74.86 35.81 74.84 35.81 77.83 42.82 78 42.74 75 35.73 74.98 35.73 75 35.73 74.98 35.73 74.86 35.81"/><polygon points="70.38 29.83 70.36 29.81 74.86 35.81 74.98 35.73 70.48 29.73 70.46 29.71 70.48 29.73 70.48 29.71 70.46 29.71 70.38 29.83"/><polygon points="64.38 25.34 64.38 25.32 70.38 29.83 70.46 29.71 64.46 25.2 64.46 25.18 64.46 25.2 64.46 25.18 64.38 25.34"/><polygon points="57.4 22.34 57.38 22.34 64.38 25.34 64.46 25.18 57.46 22.18 57.44 22.18 57.46 22.18 57.44 22.18 57.4 22.34"/><polygon points="50.04 21.34 50 21.34 57.4 22.34 57.44 22.18 50.04 21.18 50 21.18 50.04 21.18 50.02 21.18 50 21.18 50.04 21.34"/><polygon points="42.57 22.34 42.55 22.34 50.04 21.34 50 21.18 42.51 22.18 42.49 22.18 42.51 22.18 42.49 22.18 42.57 22.34"/><polygon points="35.57 25.32 35.57 25.34 42.57 22.34 42.49 22.18 35.49 25.18 35.49 25.2 35.49 25.18 35.49 25.2 35.57 25.32"/><polygon points="29.79 29.81 29.77 29.83 35.57 25.32 35.49 25.2 29.69 29.71 29.67 29.73 29.69 29.71 29.67 29.71 29.67 29.73 29.79 29.81"/><polygon points="25.11 35.81 25.09 35.81 29.79 29.81 29.67 29.73 24.97 35.73 24.95 35.73 24.97 35.73 24.95 35.73 25.11 35.81"/><polygon points="22.21 42.78 22.21 42.82 25.11 35.81 24.95 35.73 22.05 42.74 22.05 42.78 22.05 42.74 22.05 42.76 22.05 42.78 22.21 42.78"/><polygon points="21.31 50.19 22.21 42.78 22.05 42.78 21.15 50.19 21.31 50.19"/><polygon points="22.21 57.55 22.21 57.59 21.31 50.19 21.15 50.19 22.05 57.59 22.05 57.63 22.05 57.59 22.05 57.61 22.05 57.63 22.21 57.55"/><polygon points="25.09 64.56 25.11 64.56 22.21 57.55 22.05 57.63 24.95 64.64 24.97 64.64 24.95 64.64 24.97 64.64 25.09 64.56"/><polygon points="29.79 70.55 29.79 70.56 25.09 64.56 24.97 64.64 29.67 70.64 29.67 70.67 29.67 70.64 29.67 70.67 29.69 70.67 29.79 70.55"/><polygon points="35.55 75.23 35.59 75.25 29.79 70.55 29.67 70.67 35.47 75.37 35.51 75.39 35.49 75.37 35.51 75.39 35.55 75.23"/><polygon points="42.55 78.03 35.55 75.23 35.51 75.39 42.51 78.19 42.55 78.03"/><polygon points="50 79.03 50.04 79.03 42.55 78.03 42.51 78.19 50 79.19 50.04 79.19 50 79.19 50.02 79.19 50.04 79.19 50 79.03"/><polygon points="57.4 78.03 50 79.03 50.04 79.19 57.44 78.19 57.4 78.03"/><polygon points="64.38 75.25 64.4 75.23 57.4 78.03 57.44 78.19 64.44 75.39 64.46 75.37 64.44 75.39 64.46 75.37 64.38 75.25"/><polygon points="70.36 70.56 70.38 70.55 64.38 75.25 64.46 75.37 70.46 70.67 70.48 70.64 70.46 70.67 70.48 70.67 70.48 70.64 70.36 70.56"/><polygon points="74.84 64.56 74.86 64.56 70.36 70.56 70.48 70.64 74.98 64.64 75 64.64 74.98 64.64 75 64.64 74.84 64.56"/><polygon points="77.83 57.57 77.83 57.55 74.84 64.56 75 64.64 78 57.63 78 57.61 78 57.63 78 57.61 77.83 57.57"/><polygon points="78.83 50.21 78.83 50.17 77.83 57.57 78 57.61 78.99 50.21 78.99 50.17 78.99 50.21 78.99 50.19 78.99 50.17 78.83 50.21"/><polygon class="cls-5" points="75.81 50.19 74.92 43.48 72.42 37.27 68.32 31.87 62.92 27.87 56.62 25.26 50.02 24.36 43.33 25.26 37.13 27.87 31.73 31.87 27.63 37.27 25.03 43.48 24.13 50.19 25.03 56.99 27.63 63.2 31.73 68.5 37.13 72.71 43.33 75.31 50.02 76.21 56.62 75.31 62.92 72.71 68.32 68.5 72.42 63.2 74.92 56.99 75.81 50.19 75.81 50.19"/><polygon points="74.84 43.5 75.74 50.21 75.89 50.17 75 43.46 74.84 43.5"/><polygon points="72.36 37.31 72.34 37.29 74.84 43.5 75 43.46 72.5 37.25 72.48 37.23 72.5 37.25 72.48 37.23 72.36 37.31"/><polygon points="68.28 31.93 68.26 31.91 72.36 37.31 72.48 37.23 68.38 31.83 68.36 31.81 68.38 31.83 68.38 31.81 68.36 31.81 68.28 31.93"/><polygon points="62.88 27.95 62.88 27.93 68.28 31.93 68.36 31.81 62.96 27.81 62.96 27.79 62.96 27.81 62.96 27.79 62.88 27.95"/><polygon points="56.6 25.34 56.58 25.34 62.88 27.95 62.96 27.79 56.66 25.18 56.64 25.18 56.66 25.18 56.64 25.18 56.6 25.34"/><polygon points="50.04 24.44 50 24.44 56.6 25.34 56.64 25.18 50.04 24.28 50 24.28 50.04 24.28 50.02 24.28 50 24.28 50.04 24.44"/><polygon points="43.37 25.34 43.35 25.34 50.04 24.44 50 24.28 43.31 25.18 43.29 25.18 43.31 25.18 43.29 25.18 43.37 25.34"/><polygon points="37.17 27.93 37.17 27.95 43.37 25.34 43.29 25.18 37.09 27.79 37.09 27.81 37.09 27.79 37.09 27.81 37.17 27.93"/><polygon points="31.79 31.91 31.77 31.93 37.17 27.93 37.09 27.81 31.69 31.81 31.67 31.83 31.69 31.81 31.67 31.81 31.67 31.83 31.79 31.91"/><polygon points="27.71 37.31 27.69 37.31 31.79 31.91 31.67 31.83 27.57 37.23 27.55 37.23 27.57 37.23 27.55 37.23 27.71 37.31"/><polygon points="25.11 43.5 25.11 43.52 27.71 37.31 27.55 37.23 24.95 43.44 24.95 43.46 24.95 43.44 24.95 43.46 25.11 43.5"/><polygon points="24.21 50.17 24.21 50.21 25.11 43.5 24.95 43.46 24.05 50.17 24.05 50.21 24.05 50.17 24.05 50.19 24.05 50.21 24.21 50.17"/><polygon points="25.11 56.95 25.11 56.97 24.21 50.17 24.05 50.21 24.95 57.01 24.95 57.03 24.95 57.01 24.95 57.03 25.11 56.95"/><polygon points="27.69 63.16 27.71 63.16 25.11 56.95 24.95 57.03 27.55 63.24 27.57 63.24 27.55 63.24 27.57 63.24 27.69 63.16"/><polygon points="31.77 68.44 31.79 68.46 27.69 63.16 27.57 63.24 31.67 68.54 31.69 68.56 31.67 68.54 31.67 68.56 31.69 68.56 31.77 68.44"/><polygon points="37.17 72.63 37.17 72.65 31.77 68.44 31.69 68.56 37.09 72.77 37.09 72.79 37.09 72.77 37.09 72.79 37.17 72.63"/><polygon points="43.35 75.23 43.37 75.23 37.17 72.63 37.09 72.79 43.29 75.39 43.31 75.39 43.29 75.39 43.31 75.39 43.35 75.23"/><polygon points="50 76.13 50.04 76.13 43.35 75.23 43.31 75.39 50 76.29 50.04 76.29 50 76.29 50.02 76.29 50.04 76.29 50 76.13"/><polygon points="56.58 75.23 56.6 75.23 50 76.13 50.04 76.29 56.64 75.39 56.66 75.39 56.64 75.39 56.66 75.39 56.58 75.23"/><polygon points="62.88 72.65 62.88 72.63 56.58 75.23 56.66 75.39 62.96 72.79 62.96 72.77 62.96 72.79 62.96 72.77 62.88 72.65"/><polygon points="68.26 68.46 68.28 68.44 62.88 72.65 62.96 72.77 68.36 68.56 68.38 68.54 68.36 68.56 68.38 68.56 68.38 68.54 68.26 68.46"/><polygon points="72.34 63.18 72.36 63.16 68.26 68.46 68.38 68.54 72.48 63.24 72.5 63.22 72.48 63.24 72.5 63.22 72.34 63.18"/><polygon points="74.84 56.97 72.34 63.18 72.5 63.22 75 57.01 74.84 56.97"/><polygon points="75.74 50.21 75.74 50.17 74.84 56.97 75 57.01 75.89 50.21 75.89 50.17 75.89 50.21 75.89 50.19 75.89 50.17 75.74 50.21"/></svg>